<svg width="350" height="200" viewBox="0 0 350 200" fill="none" xmlns="http://www.w3.org/2000/svg">
<rect width="350" height="200" rx="12" fill="url(#paint0_linear_191_809)"/>
<mask id="mask0_191_809" style="mask-type:alpha" maskUnits="userSpaceOnUse" x="0" y="0" width="350" height="200">
<rect width="350" height="200" rx="12" fill="url(#paint1_linear_191_809)"/>
</mask>
<g mask="url(#mask0_191_809)">
<rect width="105.77" height="233.43" transform="matrix(0.855934 -0.517084 0.590128 0.80731 -95.6145 74.2143)" fill="white" fill-opacity="0.05"/>
</g>
<mask id="mask1_191_809" style="mask-type:alpha" maskUnits="userSpaceOnUse" x="0" y="0" width="350" height="200">
<rect width="350" height="200" rx="12" fill="url(#paint2_linear_191_809)"/>
</mask>
<g mask="url(#mask1_191_809)">
<rect width="100.224" height="313.253" transform="matrix(0.855893 -0.517154 0.590198 0.807258 -18.0004 2.74026)" fill="#09333A"/>
</g>
<mask id="mask2_191_809" style="mask-type:alpha" maskUnits="userSpaceOnUse" x="0" y="0" width="350" height="200">
<rect width="350" height="200" rx="12" fill="url(#paint3_linear_191_809)"/>
</mask>
<g mask="url(#mask2_191_809)">
<rect width="118.712" height="404.227" transform="matrix(0.855893 -0.517154 0.590198 0.807258 65.0002 -52.2441)" fill="#0F3940"/>
</g>
<path d="M40.3576 35.9677C40.3576 35.8027 40.3322 35.6546 40.2814 35.5234C40.2349 35.388 40.146 35.2652 40.0148 35.1552C39.8836 35.041 39.6996 34.9288 39.4626 34.8188C39.2256 34.7088 38.9188 34.5945 38.5422 34.476C38.1232 34.3406 37.7254 34.1883 37.3488 34.019C36.9764 33.8497 36.6463 33.6529 36.3586 33.4286C36.0751 33.2001 35.8508 32.9356 35.6857 32.6352C35.5249 32.3347 35.4445 31.9856 35.4445 31.5878C35.4445 31.2027 35.5292 30.8536 35.6984 30.5405C35.8677 30.2231 36.1047 29.9523 36.4094 29.728C36.7141 29.4995 37.0738 29.3238 37.4885 29.2011C37.9074 29.0784 38.3666 29.017 38.8659 29.017C39.5472 29.017 40.1418 29.1398 40.6496 29.3852C41.1574 29.6306 41.551 29.9671 41.8303 30.3945C42.1138 30.8219 42.2556 31.3106 42.2556 31.8608H40.364C40.364 31.5899 40.3068 31.353 40.1926 31.1498C40.0825 30.9425 39.9133 30.7796 39.6848 30.6611C39.4605 30.5426 39.1769 30.4833 38.8342 30.4833C38.5041 30.4833 38.229 30.5341 38.009 30.6357C37.7889 30.733 37.6239 30.8663 37.5139 31.0356C37.4038 31.2006 37.3488 31.3868 37.3488 31.5942C37.3488 31.7508 37.3869 31.8925 37.4631 32.0195C37.5435 32.1464 37.662 32.2649 37.8185 32.3749C37.9751 32.485 38.1677 32.5886 38.3962 32.686C38.6247 32.7833 38.8892 32.8785 39.1896 32.9716C39.6932 33.124 40.1354 33.2953 40.5163 33.4858C40.9014 33.6762 41.223 33.8899 41.4811 34.1269C41.7393 34.3639 41.9339 34.6326 42.0651 34.933C42.1963 35.2335 42.2619 35.5742 42.2619 35.955C42.2619 36.357 42.1836 36.7167 42.027 37.0341C41.8705 37.3515 41.6441 37.6202 41.3478 37.8403C41.0516 38.0603 40.6983 38.2275 40.2878 38.3417C39.8773 38.456 39.4182 38.5131 38.9103 38.5131C38.4533 38.5131 38.0026 38.4539 37.5583 38.3354C37.114 38.2127 36.7098 38.0286 36.3459 37.7831C35.9862 37.5377 35.6984 37.2245 35.4826 36.8437C35.2668 36.4628 35.1589 36.0121 35.1589 35.4916H37.0695C37.0695 35.7794 37.114 36.0227 37.2028 36.2216C37.2917 36.4205 37.4165 36.5813 37.5773 36.704C37.7424 36.8268 37.937 36.9156 38.1613 36.9706C38.3898 37.0257 38.6395 37.0532 38.9103 37.0532C39.2404 37.0532 39.5113 37.0066 39.7228 36.9135C39.9387 36.8204 40.0974 36.6913 40.1989 36.5263C40.3047 36.3613 40.3576 36.1751 40.3576 35.9677ZM45.4517 29.144V38.3862H43.5538V29.144H45.4517ZM51.9169 35.9677C51.9169 35.8027 51.8916 35.6546 51.8408 35.5234C51.7942 35.388 51.7054 35.2652 51.5742 35.1552C51.443 35.041 51.2589 34.9288 51.0219 34.8188C50.7849 34.7088 50.4781 34.5945 50.1015 34.476C49.6826 34.3406 49.2848 34.1883 48.9082 34.019C48.5358 33.8497 48.2057 33.6529 47.9179 33.4286C47.6344 33.2001 47.4101 32.9356 47.2451 32.6352C47.0843 32.3347 47.0039 31.9856 47.0039 31.5878C47.0039 31.2027 47.0885 30.8536 47.2578 30.5405C47.427 30.2231 47.664 29.9523 47.9687 29.728C48.2734 29.4995 48.6331 29.3238 49.0478 29.2011C49.4667 29.0784 49.9259 29.017 50.4252 29.017C51.1066 29.017 51.7011 29.1398 52.2089 29.3852C52.7167 29.6306 53.1103 29.9671 53.3896 30.3945C53.6731 30.8219 53.8149 31.3106 53.8149 31.8608H51.9233C51.9233 31.5899 51.8662 31.353 51.7519 31.1498C51.6419 30.9425 51.4726 30.7796 51.2441 30.6611C51.0198 30.5426 50.7363 30.4833 50.3935 30.4833C50.0634 30.4833 49.7884 30.5341 49.5683 30.6357C49.3483 30.733 49.1832 30.8663 49.0732 31.0356C48.9632 31.2006 48.9082 31.3868 48.9082 31.5942C48.9082 31.7508 48.9462 31.8925 49.0224 32.0195C49.1028 32.1464 49.2213 32.2649 49.3779 32.3749C49.5345 32.485 49.727 32.5886 49.9555 32.686C50.184 32.7833 50.4485 32.8785 50.749 32.9716C51.2526 33.124 51.6948 33.2953 52.0756 33.4858C52.4607 33.6762 52.7823 33.8899 53.0405 34.1269C53.2986 34.3639 53.4933 34.6326 53.6245 34.933C53.7556 35.2335 53.8212 35.5742 53.8212 35.955C53.8212 36.357 53.7429 36.7167 53.5864 37.0341C53.4298 37.3515 53.2034 37.6202 52.9072 37.8403C52.611 38.0603 52.2576 38.2275 51.8471 38.3417C51.4366 38.456 50.9775 38.5131 50.4697 38.5131C50.0126 38.5131 49.562 38.4539 49.1176 38.3354C48.6733 38.2127 48.2692 38.0286 47.9052 37.7831C47.5455 37.5377 47.2578 37.2245 47.0419 36.8437C46.8261 36.4628 46.7182 36.0121 46.7182 35.4916H48.6289C48.6289 35.7794 48.6733 36.0227 48.7622 36.2216C48.851 36.4205 48.9759 36.5813 49.1367 36.704C49.3017 36.8268 49.4964 36.9156 49.7207 36.9706C49.9492 37.0257 50.1988 37.0532 50.4697 37.0532C50.7998 37.0532 51.0706 37.0066 51.2822 36.9135C51.498 36.8204 51.6567 36.6913 51.7582 36.5263C51.864 36.3613 51.9169 36.1751 51.9169 35.9677ZM60.0897 29.144H61.9876V35.2504C61.9876 35.9614 61.8353 36.5602 61.5306 37.0468C61.2301 37.5335 60.8133 37.8995 60.2801 38.145C59.7511 38.3904 59.1418 38.5131 58.452 38.5131C57.7622 38.5131 57.1486 38.3904 56.6112 38.145C56.078 37.8995 55.659 37.5335 55.3543 37.0468C55.0539 36.5602 54.9036 35.9614 54.9036 35.2504V29.144H56.8079V35.2504C56.8079 35.6651 56.8735 36.0037 57.0047 36.2661C57.1359 36.5284 57.3242 36.721 57.5697 36.8437C57.8193 36.9664 58.1134 37.0278 58.452 37.0278C58.799 37.0278 59.0931 36.9664 59.3343 36.8437C59.5797 36.721 59.7659 36.5284 59.8929 36.2661C60.0241 36.0037 60.0897 35.6651 60.0897 35.2504V29.144ZM70.1319 35.0917H67.7769V33.6064H70.1319C70.4959 33.6064 70.7921 33.5471 71.0206 33.4286C71.2491 33.3059 71.4163 33.1367 71.5221 32.9208C71.6279 32.705 71.6807 32.4617 71.6807 32.1909C71.6807 31.9158 71.6279 31.6598 71.5221 31.4228C71.4163 31.1858 71.2491 30.9954 71.0206 30.8515C70.7921 30.7076 70.4959 30.6357 70.1319 30.6357H68.4371V38.3862H66.5328V29.144H70.1319C70.8556 29.144 71.4755 29.2752 71.9918 29.5375C72.5123 29.7957 72.9101 30.1533 73.1851 30.6103C73.4602 31.0673 73.5977 31.5899 73.5977 32.1782C73.5977 32.7748 73.4602 33.2911 73.1851 33.727C72.9101 34.1629 72.5123 34.4993 71.9918 34.7363C71.4755 34.9732 70.8556 35.0917 70.1319 35.0917ZM78.2983 36.8373V33.7778C78.2983 33.5577 78.2623 33.3694 78.1904 33.2128C78.1185 33.052 78.0063 32.9272 77.854 32.8383C77.7059 32.7495 77.5133 32.705 77.2763 32.705C77.0732 32.705 76.8976 32.741 76.7495 32.8129C76.6014 32.8806 76.4871 32.9801 76.4067 33.1113C76.3263 33.2382 76.2861 33.3884 76.2861 33.562H74.458C74.458 33.27 74.5257 32.9928 74.6611 32.7304C74.7965 32.468 74.9933 32.2374 75.2514 32.0385C75.5096 31.8354 75.8164 31.6767 76.1718 31.5624C76.5315 31.4482 76.9336 31.3911 77.3779 31.3911C77.9111 31.3911 78.3851 31.4799 78.7998 31.6577C79.2145 31.8354 79.5403 32.102 79.7773 32.4575C80.0185 32.8129 80.1391 33.2573 80.1391 33.7905V36.7294C80.1391 37.1061 80.1624 37.415 80.209 37.6562C80.2555 37.8932 80.3232 38.1005 80.4121 38.2783V38.3862H78.5649C78.476 38.2 78.4083 37.9672 78.3618 37.6879C78.3195 37.4044 78.2983 37.1209 78.2983 36.8373ZM78.5395 34.2031L78.5522 35.2377H77.5302C77.289 35.2377 77.0796 35.2652 76.9018 35.3203C76.7241 35.3753 76.5781 35.4536 76.4638 35.5551C76.3496 35.6524 76.2649 35.7667 76.2099 35.8979C76.1591 36.0291 76.1338 36.173 76.1338 36.3295C76.1338 36.4861 76.1697 36.6279 76.2417 36.7548C76.3136 36.8775 76.4173 36.9749 76.5527 37.0468C76.6881 37.1145 76.8468 37.1484 77.0288 37.1484C77.3038 37.1484 77.5429 37.0934 77.7461 36.9833C77.9492 36.8733 78.1058 36.7379 78.2158 36.5771C78.33 36.4163 78.3893 36.2639 78.3935 36.1201L78.8759 36.8945C78.8082 37.068 78.7151 37.2478 78.5966 37.434C78.4824 37.6202 78.3364 37.7958 78.1587 37.9609C77.9809 38.1217 77.7672 38.255 77.5175 38.3608C77.2679 38.4623 76.9716 38.5131 76.6289 38.5131C76.193 38.5131 75.7973 38.4264 75.4419 38.2529C75.0906 38.0751 74.8113 37.8318 74.604 37.5229C74.4008 37.2097 74.2993 36.8543 74.2993 36.4565C74.2993 36.0968 74.367 35.7773 74.5024 35.498C74.6378 35.2187 74.8367 34.9838 75.0991 34.7934C75.3657 34.5987 75.6979 34.4527 76.0957 34.3554C76.4935 34.2538 76.9547 34.2031 77.4795 34.2031H78.5395ZM85.1317 36.4882C85.1317 36.357 85.0936 36.2385 85.0174 36.1328C84.9413 36.027 84.7995 35.9296 84.5921 35.8408C84.389 35.7477 84.0949 35.663 83.7098 35.5869C83.3628 35.5107 83.0391 35.4155 82.7386 35.3012C82.4424 35.1827 82.1843 35.041 81.9642 34.8759C81.7484 34.7109 81.5791 34.5162 81.4564 34.2919C81.3337 34.0634 81.2723 33.8032 81.2723 33.5112C81.2723 33.2234 81.3337 32.9526 81.4564 32.6987C81.5833 32.4448 81.7632 32.2205 81.9959 32.0258C82.2329 31.8269 82.5207 31.6725 82.8592 31.5624C83.202 31.4482 83.5871 31.3911 84.0145 31.3911C84.6112 31.3911 85.1232 31.4863 85.5506 31.6767C85.9823 31.8671 86.3124 32.1295 86.5409 32.4638C86.7736 32.7939 86.89 33.1705 86.89 33.5937H85.0619C85.0619 33.416 85.0238 33.2573 84.9476 33.1176C84.8757 32.9737 84.7614 32.8616 84.6048 32.7812C84.4525 32.6966 84.2536 32.6542 84.0082 32.6542C83.805 32.6542 83.6294 32.6902 83.4813 32.7621C83.3332 32.8299 83.2189 32.923 83.1385 33.0414C83.0624 33.1557 83.0243 33.2827 83.0243 33.4223C83.0243 33.5281 83.0454 33.6233 83.0877 33.7079C83.1343 33.7884 83.2083 33.8624 83.3099 33.9301C83.4115 33.9978 83.5427 34.0613 83.7035 34.1205C83.8685 34.1756 84.0716 34.2263 84.3128 34.2729C84.808 34.3745 85.2502 34.5078 85.6395 34.6728C86.0288 34.8336 86.3377 35.0536 86.5663 35.3329C86.7948 35.608 86.909 35.9698 86.909 36.4184C86.909 36.7231 86.8413 37.0024 86.7059 37.2563C86.5705 37.5102 86.3758 37.7324 86.1219 37.9228C85.868 38.109 85.5633 38.255 85.2079 38.3608C84.8566 38.4623 84.461 38.5131 84.0208 38.5131C83.3818 38.5131 82.8402 38.3989 82.3958 38.1703C81.9557 37.9418 81.6214 37.652 81.3929 37.3007C81.1686 36.9453 81.0565 36.5813 81.0565 36.2089H82.7894C82.7979 36.4586 82.8613 36.6596 82.9798 36.812C83.1026 36.9643 83.257 37.0743 83.4432 37.142C83.6336 37.2097 83.8389 37.2436 84.0589 37.2436C84.2959 37.2436 84.4927 37.2119 84.6493 37.1484C84.8058 37.0807 84.9243 36.9918 85.0047 36.8818C85.0894 36.7675 85.1317 36.6363 85.1317 36.4882ZM91.6794 36.4882C91.6794 36.357 91.6413 36.2385 91.5652 36.1328C91.489 36.027 91.3472 35.9296 91.1399 35.8408C90.9367 35.7477 90.6426 35.663 90.2575 35.5869C89.9105 35.5107 89.5868 35.4155 89.2864 35.3012C88.9901 35.1827 88.732 35.041 88.5119 34.8759C88.2961 34.7109 88.1268 34.5162 88.0041 34.2919C87.8814 34.0634 87.82 33.8032 87.82 33.5112C87.82 33.2234 87.8814 32.9526 88.0041 32.6987C88.1311 32.4448 88.3109 32.2205 88.5437 32.0258C88.7807 31.8269 89.0684 31.6725 89.407 31.5624C89.7497 31.4482 90.1348 31.3911 90.5622 31.3911C91.1589 31.3911 91.671 31.4863 92.0984 31.6767C92.53 31.8671 92.8601 32.1295 93.0886 32.4638C93.3213 32.7939 93.4377 33.1705 93.4377 33.5937H91.6096C91.6096 33.416 91.5715 33.2573 91.4953 33.1176C91.4234 32.9737 91.3091 32.8616 91.1526 32.7812C91.0002 32.6966 90.8013 32.6542 90.5559 32.6542C90.3528 32.6542 90.1771 32.6902 90.029 32.7621C89.8809 32.8299 89.7667 32.923 89.6863 33.0414C89.6101 33.1557 89.572 33.2827 89.572 33.4223C89.572 33.5281 89.5932 33.6233 89.6355 33.7079C89.682 33.7884 89.7561 33.8624 89.8576 33.9301C89.9592 33.9978 90.0904 34.0613 90.2512 34.1205C90.4162 34.1756 90.6194 34.2263 90.8606 34.2729C91.3557 34.3745 91.7979 34.5078 92.1872 34.6728C92.5766 34.8336 92.8855 35.0536 93.114 35.3329C93.3425 35.608 93.4568 35.9698 93.4568 36.4184C93.4568 36.7231 93.3891 37.0024 93.2536 37.2563C93.1182 37.5102 92.9236 37.7324 92.6697 37.9228C92.4157 38.109 92.1111 38.255 91.7556 38.3608C91.4044 38.4623 91.0087 38.5131 90.5686 38.5131C89.9296 38.5131 89.3879 38.3989 88.9436 38.1703C88.5035 37.9418 88.1692 37.652 87.9407 37.3007C87.7164 36.9453 87.6042 36.5813 87.6042 36.2089H89.3371C89.3456 36.4586 89.4091 36.6596 89.5276 36.812C89.6503 36.9643 89.8047 37.0743 89.9909 37.142C90.1814 37.2097 90.3866 37.2436 90.6067 37.2436C90.8436 37.2436 91.0404 37.2119 91.197 37.1484C91.3536 37.0807 91.4721 36.9918 91.5525 36.8818C91.6371 36.7675 91.6794 36.6363 91.6794 36.4882Z" fill="white"/>
<path d="M33.8867 160.722V169.964H32.6616V160.722H33.8867ZM36.975 164.46V169.964H35.7943V163.096H36.9115L36.975 164.46ZM36.7338 166.27L36.1879 166.25C36.1921 165.781 36.2535 165.347 36.372 164.949C36.4904 164.547 36.6661 164.198 36.8988 163.902C37.1316 163.606 37.4214 163.377 37.7684 163.216C38.1154 163.051 38.5175 162.969 38.9745 162.969C39.2961 162.969 39.5923 163.015 39.8632 163.108C40.134 163.197 40.3689 163.339 40.5678 163.534C40.7666 163.728 40.9211 163.978 41.0311 164.283C41.1412 164.587 41.1962 164.956 41.1962 165.387V169.964H40.0219V165.444C40.0219 165.085 39.9605 164.797 39.8378 164.581C39.7193 164.365 39.55 164.209 39.33 164.111C39.1099 164.01 38.8518 163.959 38.5555 163.959C38.2085 163.959 37.9187 164.02 37.6859 164.143C37.4532 164.266 37.267 164.435 37.1273 164.651C36.9877 164.867 36.8861 165.114 36.8226 165.394C36.7634 165.669 36.7338 165.961 36.7338 166.27ZM41.1835 165.622L40.3964 165.863C40.4006 165.487 40.462 165.125 40.5804 164.778C40.7032 164.431 40.8788 164.122 41.1073 163.851C41.3401 163.58 41.6257 163.367 41.9642 163.21C42.3028 163.049 42.69 162.969 43.1259 162.969C43.494 162.969 43.8199 163.017 44.1034 163.115C44.3912 163.212 44.6324 163.362 44.827 163.565C45.0259 163.764 45.1762 164.02 45.2777 164.333C45.3793 164.647 45.4301 165.019 45.4301 165.451V169.964H44.2494V165.438C44.2494 165.053 44.188 164.755 44.0653 164.543C43.9468 164.327 43.7776 164.177 43.5575 164.092C43.3417 164.003 43.0835 163.959 42.7831 163.959C42.5249 163.959 42.2964 164.003 42.0975 164.092C41.8986 164.181 41.7315 164.304 41.5961 164.46C41.4607 164.613 41.357 164.788 41.285 164.987C41.2173 165.186 41.1835 165.398 41.1835 165.622ZM54.2218 168.79V165.254C54.2218 164.983 54.1668 164.748 54.0568 164.549C53.951 164.346 53.7902 164.19 53.5744 164.08C53.3585 163.97 53.0919 163.915 52.7746 163.915C52.4783 163.915 52.2181 163.965 51.9938 164.067C51.7737 164.168 51.6002 164.302 51.4733 164.467C51.3506 164.632 51.2892 164.81 51.2892 165H50.1149C50.1149 164.755 50.1784 164.511 50.3053 164.27C50.4323 164.029 50.6142 163.811 50.8512 163.616C51.0924 163.417 51.3802 163.261 51.7145 163.146C52.053 163.028 52.4297 162.969 52.8444 162.969C53.3437 162.969 53.7838 163.053 54.1647 163.223C54.5498 163.392 54.8502 163.648 55.0661 163.991C55.2861 164.329 55.3961 164.755 55.3961 165.267V168.466C55.3961 168.694 55.4152 168.938 55.4533 169.196C55.4956 169.454 55.5569 169.676 55.6373 169.862V169.964H54.4122C54.353 169.828 54.3065 169.649 54.2726 169.424C54.2387 169.196 54.2218 168.984 54.2218 168.79ZM54.4249 165.8L54.4376 166.625H53.2506C52.9163 166.625 52.618 166.653 52.3556 166.708C52.0932 166.758 51.8732 166.837 51.6954 166.942C51.5177 167.048 51.3823 167.181 51.2892 167.342C51.1961 167.499 51.1496 167.683 51.1496 167.895C51.1496 168.11 51.1982 168.307 51.2955 168.485C51.3929 168.663 51.5389 168.804 51.7335 168.91C51.9324 169.012 52.1758 169.062 52.4635 169.062C52.8232 169.062 53.1406 168.986 53.4157 168.834C53.6907 168.682 53.9087 168.495 54.0695 168.275C54.2345 168.055 54.3234 167.842 54.3361 167.634L54.8375 168.199C54.8079 168.377 54.7275 168.574 54.5963 168.79C54.4651 169.005 54.2895 169.213 54.0695 169.412C53.8537 169.606 53.5955 169.769 53.2951 169.9C52.9988 170.027 52.6645 170.091 52.2921 170.091C51.8266 170.091 51.4183 170 51.067 169.818C50.72 169.636 50.4492 169.393 50.2545 169.088C50.0641 168.779 49.9689 168.434 49.9689 168.053C49.9689 167.685 50.0408 167.361 50.1847 167.082C50.3286 166.799 50.5359 166.564 50.8068 166.377C51.0776 166.187 51.4035 166.043 51.7843 165.946C52.1652 165.848 52.5905 165.8 53.0602 165.8H54.4249ZM64.2069 168.142C64.2069 167.973 64.1688 167.816 64.0927 167.672C64.0207 167.524 63.8705 167.391 63.642 167.272C63.4177 167.15 63.0792 167.044 62.6264 166.955C62.2455 166.875 61.9006 166.779 61.5917 166.669C61.287 166.559 61.0268 166.426 60.8109 166.27C60.5993 166.113 60.4364 165.929 60.3222 165.717C60.2079 165.506 60.1508 165.258 60.1508 164.975C60.1508 164.704 60.21 164.448 60.3285 164.207C60.4512 163.965 60.6226 163.752 60.8427 163.565C61.067 163.379 61.3357 163.233 61.6488 163.127C61.962 163.022 62.3111 162.969 62.6962 162.969C63.2463 162.969 63.716 163.066 64.1054 163.261C64.4947 163.455 64.793 163.716 65.0004 164.042C65.2077 164.363 65.3114 164.721 65.3114 165.114H64.1371C64.1371 164.924 64.08 164.74 63.9657 164.562C63.8557 164.38 63.6928 164.23 63.477 164.111C63.2654 163.993 63.0051 163.934 62.6962 163.934C62.3703 163.934 62.1059 163.984 61.9027 164.086C61.7038 164.183 61.5578 164.308 61.4647 164.46C61.3759 164.613 61.3314 164.774 61.3314 164.943C61.3314 165.07 61.3526 165.184 61.3949 165.286C61.4415 165.383 61.5219 165.474 61.6361 165.559C61.7504 165.639 61.9112 165.715 62.1186 165.787C62.3259 165.859 62.5904 165.931 62.912 166.003C63.4748 166.13 63.9382 166.282 64.3021 166.46C64.6661 166.638 64.9369 166.856 65.1146 167.114C65.2924 167.372 65.3813 167.685 65.3813 168.053C65.3813 168.354 65.3178 168.629 65.1908 168.878C65.0681 169.128 64.8882 169.344 64.6513 169.526C64.4185 169.704 64.1392 169.843 63.8134 169.945C63.4918 170.042 63.1299 170.091 62.7279 170.091C62.1228 170.091 61.6107 169.983 61.1918 169.767C60.7729 169.551 60.4555 169.272 60.2396 168.929C60.0238 168.586 59.9159 168.225 59.9159 167.844H61.0966C61.1135 168.165 61.2066 168.421 61.3759 168.612C61.5452 168.798 61.7525 168.931 61.9979 169.012C62.2434 169.088 62.4867 169.126 62.7279 169.126C63.0495 169.126 63.3183 169.084 63.5341 168.999C63.7541 168.914 63.9213 168.798 64.0355 168.65C64.1498 168.502 64.2069 168.333 64.2069 168.142ZM69.6692 163.096V163.997H65.9558V163.096H69.6692ZM67.2127 161.426H68.387V168.263C68.387 168.495 68.423 168.671 68.4949 168.79C68.5668 168.908 68.6599 168.986 68.7742 169.024C68.8885 169.062 69.0112 169.082 69.1424 169.082C69.2397 169.082 69.3413 169.073 69.4471 169.056C69.5571 169.035 69.6396 169.018 69.6946 169.005L69.701 169.964C69.6079 169.993 69.4851 170.021 69.3328 170.046C69.1847 170.076 69.0048 170.091 68.7932 170.091C68.5055 170.091 68.241 170.034 67.9998 169.919C67.7586 169.805 67.566 169.615 67.4221 169.348C67.2825 169.077 67.2127 168.713 67.2127 168.256V161.426ZM75.1188 168.377V163.096H76.2995V169.964H75.1759L75.1188 168.377ZM75.341 166.93L75.8297 166.917C75.8297 167.374 75.7811 167.797 75.6838 168.187C75.5907 168.572 75.4383 168.906 75.2267 169.189C75.0151 169.473 74.7379 169.695 74.3952 169.856C74.0524 170.013 73.6356 170.091 73.1447 170.091C72.8104 170.091 72.5036 170.042 72.2243 169.945C71.9492 169.847 71.7122 169.697 71.5133 169.494C71.3144 169.291 71.16 169.027 71.05 168.701C70.9442 168.375 70.8913 167.983 70.8913 167.526V163.096H72.0656V167.539C72.0656 167.848 72.0994 168.104 72.1671 168.307C72.2391 168.506 72.3343 168.665 72.4528 168.783C72.5755 168.897 72.7109 168.978 72.859 169.024C73.0114 169.071 73.168 169.094 73.3288 169.094C73.8281 169.094 74.2238 168.999 74.5158 168.809C74.8078 168.614 75.0172 168.354 75.1442 168.028C75.2754 167.698 75.341 167.332 75.341 166.93ZM82.2886 168.631V160.214H83.4693V169.964H82.3902L82.2886 168.631ZM77.6675 166.606V166.473C77.6675 165.948 77.731 165.472 77.8579 165.044C77.9891 164.613 78.1732 164.243 78.4102 163.934C78.6514 163.625 78.937 163.388 79.2671 163.223C79.6014 163.053 79.9738 162.969 80.3843 162.969C80.816 162.969 81.1926 163.045 81.5142 163.197C81.84 163.345 82.1151 163.563 82.3394 163.851C82.5679 164.135 82.7478 164.477 82.8789 164.879C83.0101 165.281 83.1011 165.736 83.1519 166.244V166.828C83.1053 167.332 83.0144 167.785 82.8789 168.187C82.7478 168.589 82.5679 168.931 82.3394 169.215C82.1151 169.498 81.84 169.716 81.5142 169.869C81.1884 170.017 80.8075 170.091 80.3716 170.091C79.9696 170.091 79.6014 170.004 79.2671 169.831C78.937 169.657 78.6514 169.414 78.4102 169.101C78.1732 168.787 77.9891 168.419 77.8579 167.996C77.731 167.569 77.6675 167.105 77.6675 166.606ZM78.8482 166.473V166.606C78.8482 166.949 78.882 167.27 78.9497 167.571C79.0217 167.871 79.1317 168.136 79.2798 168.364C79.4279 168.593 79.6162 168.773 79.8448 168.904C80.0733 169.031 80.3462 169.094 80.6636 169.094C81.0529 169.094 81.3724 169.012 81.6221 168.847C81.876 168.682 82.0791 168.464 82.2315 168.193C82.3838 167.922 82.5023 167.628 82.587 167.311V165.781C82.5362 165.548 82.4621 165.324 82.3648 165.108C82.2717 164.888 82.149 164.693 81.9966 164.524C81.8485 164.35 81.6644 164.213 81.4444 164.111C81.2286 164.01 80.9725 163.959 80.6763 163.959C80.3547 163.959 80.0775 164.027 79.8448 164.162C79.6162 164.293 79.4279 164.475 79.2798 164.708C79.1317 164.937 79.0217 165.203 78.9497 165.508C78.882 165.808 78.8482 166.13 78.8482 166.473ZM88.0175 170.091C87.5393 170.091 87.1056 170.01 86.7162 169.85C86.3311 169.685 85.9989 169.454 85.7197 169.158C85.4446 168.861 85.233 168.51 85.0849 168.104C84.9368 167.698 84.8627 167.253 84.8627 166.771V166.504C84.8627 165.946 84.9452 165.449 85.1103 165.013C85.2753 164.573 85.4996 164.2 85.7831 163.896C86.0667 163.591 86.3883 163.36 86.748 163.204C87.1077 163.047 87.4801 162.969 87.8652 162.969C88.356 162.969 88.7792 163.053 89.1347 163.223C89.4944 163.392 89.7885 163.629 90.017 163.934C90.2455 164.234 90.4148 164.59 90.5248 165C90.6349 165.406 90.6899 165.851 90.6899 166.333V166.86H85.561V165.901H89.5155V165.812C89.4986 165.508 89.4351 165.212 89.3251 164.924C89.2193 164.636 89.0501 164.399 88.8173 164.213C88.5846 164.027 88.2672 163.934 87.8652 163.934C87.5986 163.934 87.3531 163.991 87.1288 164.105C86.9045 164.215 86.712 164.38 86.5512 164.6C86.3904 164.82 86.2655 165.089 86.1767 165.406C86.0878 165.724 86.0434 166.09 86.0434 166.504V166.771C86.0434 167.097 86.0878 167.404 86.1767 167.691C86.2698 167.975 86.4031 168.225 86.5766 168.44C86.7543 168.656 86.968 168.826 87.2177 168.948C87.4716 169.071 87.7594 169.132 88.081 169.132C88.4957 169.132 88.8469 169.048 89.1347 168.878C89.4224 168.709 89.6742 168.483 89.8901 168.199L90.601 168.764C90.4529 168.988 90.2646 169.202 90.0361 169.405C89.8075 169.608 89.5261 169.773 89.1918 169.9C88.8617 170.027 88.4703 170.091 88.0175 170.091ZM93.1053 164.562V169.964H91.931V163.096H93.0418L93.1053 164.562ZM92.826 166.27L92.3372 166.25C92.3414 165.781 92.4113 165.347 92.5467 164.949C92.6821 164.547 92.8725 164.198 93.118 163.902C93.3634 163.606 93.6554 163.377 93.9939 163.216C94.3367 163.051 94.7155 162.969 95.1302 162.969C95.4687 162.969 95.7734 163.015 96.0442 163.108C96.3151 163.197 96.5457 163.341 96.7361 163.54C96.9308 163.739 97.0789 163.997 97.1805 164.314C97.282 164.628 97.3328 165.011 97.3328 165.463V169.964H96.1521V165.451C96.1521 165.091 96.0993 164.803 95.9935 164.587C95.8877 164.367 95.7332 164.209 95.5301 164.111C95.327 164.01 95.0773 163.959 94.7811 163.959C94.4891 163.959 94.2225 164.02 93.9813 164.143C93.7443 164.266 93.539 164.435 93.3655 164.651C93.1963 164.867 93.063 165.114 92.9656 165.394C92.8725 165.669 92.826 165.961 92.826 166.27ZM101.862 163.096V163.997H98.1486V163.096H101.862ZM99.4054 161.426H100.58V168.263C100.58 168.495 100.616 168.671 100.688 168.79C100.76 168.908 100.853 168.986 100.967 169.024C101.081 169.062 101.204 169.082 101.335 169.082C101.432 169.082 101.534 169.073 101.64 169.056C101.75 169.035 101.832 169.018 101.887 169.005L101.894 169.964C101.801 169.993 101.678 170.021 101.526 170.046C101.377 170.076 101.198 170.091 100.986 170.091C100.698 170.091 100.434 170.034 100.193 169.919C99.9513 169.805 99.7588 169.615 99.6149 169.348C99.4753 169.077 99.4054 168.713 99.4054 168.256V161.426Z" fill="white"/>
<path d="M290.97 164.606V166.016C290.97 166.773 290.902 167.412 290.767 167.933C290.631 168.453 290.437 168.872 290.183 169.189C289.929 169.507 289.622 169.737 289.262 169.881C288.907 170.021 288.505 170.091 288.056 170.091C287.701 170.091 287.373 170.046 287.072 169.958C286.772 169.869 286.501 169.727 286.26 169.532C286.023 169.333 285.82 169.075 285.65 168.758C285.481 168.44 285.352 168.055 285.263 167.603C285.174 167.15 285.13 166.621 285.13 166.016V164.606C285.13 163.849 285.198 163.214 285.333 162.702C285.473 162.19 285.669 161.78 285.923 161.471C286.177 161.158 286.482 160.933 286.837 160.798C287.197 160.662 287.599 160.595 288.043 160.595C288.403 160.595 288.733 160.639 289.034 160.728C289.338 160.813 289.609 160.95 289.846 161.141C290.083 161.327 290.284 161.576 290.449 161.89C290.618 162.199 290.748 162.577 290.836 163.026C290.925 163.474 290.97 164.001 290.97 164.606ZM289.789 166.206V164.41C289.789 163.995 289.764 163.631 289.713 163.318C289.666 163 289.596 162.73 289.503 162.505C289.41 162.281 289.292 162.099 289.148 161.959C289.008 161.82 288.845 161.718 288.659 161.655C288.477 161.587 288.272 161.553 288.043 161.553C287.764 161.553 287.517 161.606 287.301 161.712C287.085 161.813 286.903 161.976 286.755 162.201C286.611 162.425 286.501 162.719 286.425 163.083C286.349 163.447 286.311 163.889 286.311 164.41V166.206C286.311 166.621 286.334 166.987 286.38 167.304C286.431 167.622 286.505 167.897 286.603 168.129C286.7 168.358 286.818 168.546 286.958 168.694C287.098 168.842 287.258 168.952 287.44 169.024C287.627 169.092 287.832 169.126 288.056 169.126C288.344 169.126 288.596 169.071 288.812 168.961C289.027 168.851 289.207 168.68 289.351 168.447C289.499 168.21 289.609 167.907 289.681 167.539C289.753 167.167 289.789 166.722 289.789 166.206ZM296.857 160.709H296.959V161.706H296.857C296.235 161.706 295.715 161.807 295.296 162.01C294.877 162.209 294.545 162.478 294.299 162.816C294.054 163.151 293.876 163.527 293.766 163.946C293.66 164.365 293.607 164.791 293.607 165.222V166.581C293.607 166.991 293.656 167.355 293.753 167.672C293.851 167.986 293.984 168.25 294.153 168.466C294.322 168.682 294.513 168.845 294.724 168.955C294.94 169.065 295.165 169.12 295.397 169.12C295.668 169.12 295.909 169.069 296.121 168.967C296.333 168.861 296.51 168.715 296.654 168.529C296.802 168.339 296.914 168.115 296.991 167.856C297.067 167.598 297.105 167.315 297.105 167.006C297.105 166.731 297.071 166.466 297.003 166.212C296.936 165.954 296.832 165.726 296.692 165.527C296.553 165.324 296.377 165.165 296.165 165.051C295.958 164.932 295.71 164.873 295.423 164.873C295.097 164.873 294.792 164.953 294.509 165.114C294.229 165.271 293.999 165.478 293.817 165.736C293.639 165.99 293.537 166.267 293.512 166.568L292.89 166.562C292.949 166.088 293.059 165.683 293.22 165.349C293.385 165.011 293.588 164.736 293.829 164.524C294.075 164.308 294.348 164.152 294.648 164.054C294.953 163.953 295.275 163.902 295.613 163.902C296.074 163.902 296.472 163.989 296.807 164.162C297.141 164.336 297.416 164.568 297.632 164.86C297.848 165.148 298.006 165.474 298.108 165.838C298.214 166.198 298.266 166.568 298.266 166.949C298.266 167.385 298.205 167.793 298.082 168.174C297.96 168.555 297.776 168.889 297.53 169.177C297.289 169.465 296.991 169.689 296.635 169.85C296.28 170.01 295.867 170.091 295.397 170.091C294.898 170.091 294.462 169.989 294.09 169.786C293.717 169.579 293.408 169.304 293.163 168.961C292.918 168.618 292.733 168.237 292.611 167.818C292.488 167.399 292.427 166.974 292.427 166.542V165.99C292.427 165.339 292.492 164.7 292.623 164.073C292.755 163.447 292.981 162.88 293.303 162.372C293.628 161.864 294.079 161.46 294.655 161.16C295.23 160.859 295.964 160.709 296.857 160.709ZM303.748 160.722L299.895 170.757H298.885L302.745 160.722H303.748ZM310.829 168.999V169.964H304.779V169.12L307.807 165.749C308.18 165.334 308.467 164.983 308.671 164.695C308.878 164.403 309.022 164.143 309.102 163.915C309.187 163.682 309.229 163.445 309.229 163.204C309.229 162.899 309.166 162.624 309.039 162.378C308.916 162.129 308.734 161.93 308.493 161.782C308.252 161.634 307.96 161.56 307.617 161.56C307.206 161.56 306.864 161.64 306.588 161.801C306.318 161.957 306.115 162.177 305.979 162.461C305.844 162.744 305.776 163.07 305.776 163.438H304.602C304.602 162.918 304.716 162.442 304.944 162.01C305.173 161.579 305.512 161.236 305.96 160.982C306.409 160.724 306.961 160.595 307.617 160.595C308.201 160.595 308.7 160.698 309.115 160.906C309.53 161.109 309.847 161.397 310.067 161.769C310.291 162.137 310.403 162.569 310.403 163.064C310.403 163.335 310.357 163.61 310.264 163.889C310.175 164.164 310.05 164.439 309.889 164.714C309.733 164.989 309.549 165.26 309.337 165.527C309.13 165.793 308.908 166.056 308.671 166.314L306.195 168.999H310.829ZM315.815 160.671V169.964H314.641V162.137L312.273 163V161.94L315.631 160.671H315.815Z" fill="white"/>
<path d="M36.7388 86.6312V98.7835H35.2031V88.5486L32.1069 89.6776V88.2913L36.498 86.6312H36.7388ZM49.0033 97.5218V98.7835H41.0927V97.6795L45.0522 93.2718C45.5391 92.7295 45.9154 92.2702 46.1811 91.8939C46.4522 91.512 46.6404 91.1717 46.7455 90.8729C46.8562 90.5685 46.9115 90.2586 46.9115 89.9432C46.9115 89.5447 46.8285 89.185 46.6625 88.8641C46.502 88.5376 46.2641 88.2775 45.9487 88.0838C45.6332 87.8901 45.2514 87.7933 44.8031 87.7933C44.2664 87.7933 43.8181 87.8984 43.4584 88.1087C43.1043 88.3135 42.8386 88.6012 42.6615 88.972C42.4845 89.3428 42.3959 89.7689 42.3959 90.2503H40.8603C40.8603 89.5696 41.0097 88.9471 41.3085 88.3826C41.6073 87.8182 42.0501 87.3699 42.6366 87.0379C43.2232 86.7003 43.9454 86.5316 44.8031 86.5316C45.5668 86.5316 46.2198 86.6671 46.7621 86.9383C47.3044 87.2039 47.7195 87.5802 48.0072 88.0672C48.3005 88.5486 48.4472 89.1131 48.4472 89.7606C48.4472 90.1147 48.3863 90.4744 48.2646 90.8397C48.1484 91.1994 47.9851 91.5591 47.7748 91.9188C47.5701 92.2785 47.3293 92.6326 47.0527 92.9813C46.7815 93.3299 46.491 93.673 46.1811 94.0106L42.9438 97.5218H49.0033ZM52.7181 91.9852H53.8138C54.3506 91.9852 54.7933 91.8966 55.1419 91.7195C55.4961 91.5369 55.759 91.2907 55.9305 90.9808C56.1076 90.6653 56.1961 90.3112 56.1961 89.9183C56.1961 89.4534 56.1187 89.0633 55.9637 88.7479C55.8088 88.4324 55.5763 88.1945 55.2664 88.034C54.9565 87.8735 54.5636 87.7933 54.0877 87.7933C53.6561 87.7933 53.2743 87.879 52.9422 88.0506C52.6157 88.2166 52.3584 88.4546 52.1703 88.7645C51.9876 89.0744 51.8963 89.4396 51.8963 89.8602H50.3607C50.3607 89.2459 50.5156 88.687 50.8255 88.1834C51.1354 87.6798 51.5698 87.2786 52.1287 86.9798C52.6932 86.681 53.3462 86.5316 54.0877 86.5316C54.8182 86.5316 55.4574 86.6616 56.0052 86.9217C56.5531 87.1762 56.9792 87.5581 57.2835 88.0672C57.5879 88.5708 57.7401 89.1989 57.7401 89.9515C57.7401 90.2558 57.6681 90.5823 57.5243 90.931C57.3859 91.2741 57.1673 91.595 56.8685 91.8939C56.5752 92.1927 56.1934 92.4389 55.723 92.6326C55.2526 92.8208 54.6882 92.9149 54.0296 92.9149H52.7181V91.9852ZM52.7181 93.2469V92.3255H54.0296C54.7988 92.3255 55.4352 92.4168 55.9388 92.5994C56.4424 92.782 56.8381 93.0255 57.1258 93.3299C57.4191 93.6343 57.6239 93.9691 57.7401 94.3343C57.8618 94.694 57.9227 95.0537 57.9227 95.4134C57.9227 95.9778 57.8259 96.4787 57.6322 96.9158C57.444 97.353 57.1756 97.7238 56.827 98.0281C56.4839 98.3325 56.0799 98.5622 55.6151 98.7171C55.1502 98.872 54.6439 98.9495 54.096 98.9495C53.5703 98.9495 53.075 98.8748 52.6102 98.7254C52.1509 98.576 51.7441 98.3602 51.39 98.0779C51.0358 97.7902 50.7591 97.4388 50.5599 97.0237C50.3607 96.6032 50.2611 96.1245 50.2611 95.5877H51.7967C51.7967 96.0083 51.888 96.3763 52.0706 96.6917C52.2588 97.0071 52.5244 97.2534 52.8675 97.4305C53.2162 97.602 53.6257 97.6878 54.096 97.6878C54.5664 97.6878 54.9704 97.6076 55.3079 97.4471C55.651 97.2811 55.9139 97.032 56.0965 96.7C56.2847 96.368 56.3787 95.9502 56.3787 95.4466C56.3787 94.943 56.2736 94.5307 56.0633 94.2098C55.853 93.8833 55.5542 93.6426 55.1668 93.4876C54.785 93.3271 54.334 93.2469 53.8138 93.2469H52.7181ZM68.0374 94.7161V95.9778H59.3049V95.0731L64.7171 86.6976H65.9705L64.6257 89.1214L61.0481 94.7161H68.0374ZM66.3523 86.6976V98.7835H64.8167V86.6976H66.3523Z" fill="white"/>
<path d="M83.6343 93.0311L82.4058 92.7156L83.0117 86.6976H89.2124V88.117H84.3149L83.9497 91.4041C84.1711 91.2768 84.4505 91.1579 84.7881 91.0472C85.1312 90.9365 85.5241 90.8812 85.9668 90.8812C86.5257 90.8812 87.0265 90.978 87.4692 91.1717C87.9119 91.3598 88.2882 91.631 88.5981 91.9852C88.9136 92.3393 89.1543 92.7654 89.3203 93.2635C89.4863 93.7615 89.5693 94.3177 89.5693 94.9319C89.5693 95.513 89.4891 96.047 89.3286 96.534C89.1737 97.021 88.9385 97.4471 88.623 97.8123C88.3076 98.172 87.9092 98.4515 87.4277 98.6507C86.9518 98.8499 86.3901 98.9495 85.7427 98.9495C85.2557 98.9495 84.7936 98.8831 84.3564 98.7503C83.9248 98.612 83.5374 98.4044 83.1943 98.1277C82.8568 97.8455 82.5801 97.4969 82.3643 97.0818C82.154 96.6613 82.0212 96.1688 81.9658 95.6043H83.4268C83.4932 96.0581 83.626 96.4399 83.8252 96.7498C84.0244 97.0597 84.2845 97.2949 84.6055 97.4554C84.932 97.6103 85.311 97.6878 85.7427 97.6878C86.1079 97.6878 86.4316 97.6242 86.7139 97.4969C86.9961 97.3696 87.234 97.187 87.4277 96.949C87.6214 96.7111 87.7681 96.4233 87.8677 96.0858C87.9728 95.7482 88.0254 95.3691 88.0254 94.9485C88.0254 94.5667 87.9728 94.2125 87.8677 93.886C87.7625 93.5595 87.6048 93.2746 87.3945 93.0311C87.1898 92.7876 86.938 92.5994 86.6392 92.4666C86.3403 92.3283 85.9972 92.2591 85.6099 92.2591C85.0952 92.2591 84.7051 92.3283 84.4395 92.4666C84.1794 92.605 83.911 92.7931 83.6343 93.0311ZM96.9779 86.681H97.1108V87.9842H96.9779C96.1645 87.9842 95.4838 88.117 94.936 88.3826C94.3881 88.6427 93.9537 88.9941 93.6327 89.4368C93.3118 89.874 93.0793 90.3665 92.9355 90.9144C92.7971 91.4622 92.7279 92.0184 92.7279 92.5828V94.3592C92.7279 94.896 92.7916 95.3719 92.9189 95.7869C93.0461 96.1964 93.2205 96.5423 93.4418 96.8245C93.6632 97.1068 93.9122 97.3198 94.1889 97.4637C94.4711 97.6076 94.7644 97.6795 95.0688 97.6795C95.4229 97.6795 95.7384 97.6131 96.0151 97.4803C96.2918 97.3419 96.5242 97.151 96.7123 96.9075C96.906 96.6585 97.0527 96.3652 97.1523 96.0276C97.2519 95.6901 97.3017 95.3193 97.3017 94.9153C97.3017 94.5556 97.2574 94.2098 97.1689 93.8777C97.0803 93.5402 96.9447 93.2414 96.7621 92.9813C96.5795 92.7156 96.3499 92.5081 96.0732 92.3587C95.802 92.2038 95.4783 92.1263 95.102 92.1263C94.6759 92.1263 94.2774 92.2314 93.9067 92.4417C93.5414 92.6465 93.2398 92.9176 93.0019 93.2552C92.7695 93.5872 92.6366 93.9497 92.6034 94.3426L91.79 94.3343C91.8674 93.7145 92.0113 93.186 92.2216 92.7488C92.4374 92.3061 92.703 91.9464 93.0185 91.6697C93.3394 91.3875 93.6964 91.1828 94.0893 91.0555C94.4877 90.9227 94.9083 90.8563 95.351 90.8563C95.9542 90.8563 96.4744 90.9697 96.9115 91.1966C97.3487 91.4235 97.7084 91.7278 97.9906 92.1097C98.2729 92.486 98.4804 92.9121 98.6132 93.388C98.7515 93.8584 98.8207 94.3426 98.8207 94.8406C98.8207 95.4106 98.7405 95.9446 98.58 96.4427C98.4195 96.9407 98.1788 97.3779 97.8578 97.7542C97.5424 98.1305 97.1523 98.4238 96.6874 98.6341C96.2226 98.8444 95.683 98.9495 95.0688 98.9495C94.4158 98.9495 93.8458 98.8167 93.3588 98.5511C92.8718 98.2799 92.4679 97.9202 92.1469 97.472C91.8259 97.0237 91.5852 96.5257 91.4247 95.9778C91.2642 95.43 91.184 94.8738 91.184 94.3094V93.5872C91.184 92.735 91.2698 91.8994 91.4413 91.0804C91.6129 90.2614 91.9089 89.5198 92.3295 88.8558C92.7556 88.1917 93.345 87.6632 94.0976 87.2703C94.8502 86.8774 95.8103 86.681 96.9779 86.681ZM108.288 86.6976V87.5609L103.283 98.7835H101.664L106.661 87.9593H100.12V86.6976H108.288ZM117.49 95.513C117.49 96.249 117.318 96.8743 116.975 97.389C116.637 97.8981 116.178 98.2855 115.597 98.5511C115.021 98.8167 114.371 98.9495 113.646 98.9495C112.921 98.9495 112.268 98.8167 111.687 98.5511C111.106 98.2855 110.647 97.8981 110.309 97.389C109.972 96.8743 109.803 96.249 109.803 95.513C109.803 95.0316 109.894 94.5916 110.077 94.1932C110.265 93.7892 110.528 93.4378 110.865 93.139C111.209 92.8401 111.613 92.6105 112.077 92.45C112.548 92.284 113.065 92.201 113.63 92.201C114.371 92.201 115.032 92.3449 115.614 92.6326C116.195 92.9149 116.651 93.305 116.983 93.803C117.321 94.3011 117.49 94.8711 117.49 95.513ZM115.946 95.4798C115.946 95.0316 115.849 94.6359 115.655 94.2928C115.461 93.9442 115.19 93.673 114.842 93.4793C114.493 93.2856 114.089 93.1888 113.63 93.1888C113.159 93.1888 112.753 93.2856 112.409 93.4793C112.072 93.673 111.809 93.9442 111.621 94.2928C111.433 94.6359 111.339 95.0316 111.339 95.4798C111.339 95.9446 111.43 96.3431 111.613 96.6751C111.801 97.0016 112.066 97.2534 112.409 97.4305C112.758 97.602 113.17 97.6878 113.646 97.6878C114.122 97.6878 114.532 97.602 114.875 97.4305C115.218 97.2534 115.481 97.0016 115.663 96.6751C115.851 96.3431 115.946 95.9446 115.946 95.4798ZM117.207 89.8436C117.207 90.4302 117.052 90.9586 116.742 91.429C116.433 91.8994 116.009 92.2702 115.472 92.5413C114.936 92.8125 114.327 92.9481 113.646 92.9481C112.955 92.9481 112.337 92.8125 111.795 92.5413C111.258 92.2702 110.838 91.8994 110.533 91.429C110.229 90.9586 110.077 90.4302 110.077 89.8436C110.077 89.1408 110.229 88.5431 110.533 88.0506C110.843 87.5581 111.267 87.1818 111.803 86.9217C112.34 86.6616 112.952 86.5316 113.638 86.5316C114.33 86.5316 114.944 86.6616 115.481 86.9217C116.018 87.1818 116.438 87.5581 116.742 88.0506C117.052 88.5431 117.207 89.1408 117.207 89.8436ZM115.672 89.8685C115.672 89.4645 115.586 89.1076 115.414 88.7977C115.243 88.4878 115.005 88.2443 114.7 88.0672C114.396 87.8846 114.042 87.7933 113.638 87.7933C113.234 87.7933 112.88 87.879 112.575 88.0506C112.277 88.2166 112.041 88.4546 111.87 88.7645C111.704 89.0744 111.621 89.4424 111.621 89.8685C111.621 90.2835 111.704 90.646 111.87 90.9559C112.041 91.2658 112.279 91.5065 112.584 91.678C112.888 91.8496 113.242 91.9354 113.646 91.9354C114.05 91.9354 114.402 91.8496 114.7 91.678C115.005 91.5065 115.243 91.2658 115.414 90.9559C115.586 90.646 115.672 90.2835 115.672 89.8685Z" fill="white"/>
<path d="M133.219 97.4969H133.377C134.262 97.4969 134.982 97.3724 135.535 97.1234C136.089 96.8743 136.515 96.5395 136.813 96.119C137.112 95.6984 137.317 95.2252 137.428 94.6995C137.538 94.1683 137.594 93.6232 137.594 93.0643V91.2132C137.594 90.6653 137.53 90.1784 137.403 89.7523C137.281 89.3262 137.11 88.9692 136.888 88.6815C136.672 88.3937 136.426 88.1751 136.149 88.0257C135.873 87.8763 135.579 87.8016 135.27 87.8016C134.915 87.8016 134.597 87.8735 134.315 88.0174C134.038 88.1557 133.803 88.3522 133.609 88.6068C133.421 88.8613 133.277 89.1601 133.178 89.5032C133.078 89.8463 133.028 90.2199 133.028 90.6238C133.028 90.9835 133.073 91.3322 133.161 91.6697C133.25 92.0073 133.385 92.3117 133.568 92.5828C133.75 92.854 133.977 93.0698 134.249 93.2303C134.525 93.3852 134.849 93.4627 135.22 93.4627C135.563 93.4627 135.884 93.3963 136.183 93.2635C136.487 93.1251 136.755 92.9398 136.988 92.7073C137.226 92.4694 137.414 92.201 137.552 91.9022C137.696 91.6033 137.779 91.2907 137.801 90.9642H138.532C138.532 91.4235 138.44 91.8773 138.258 92.3255C138.081 92.7682 137.832 93.1722 137.511 93.5374C137.19 93.9026 136.813 94.1959 136.382 94.4173C135.95 94.6331 135.48 94.741 134.971 94.741C134.373 94.741 133.856 94.6248 133.418 94.3924C132.981 94.16 132.622 93.8501 132.339 93.4627C132.063 93.0753 131.855 92.6437 131.717 92.1678C131.584 91.6863 131.518 91.1994 131.518 90.7068C131.518 90.1313 131.598 89.5918 131.758 89.0882C131.919 88.5846 132.157 88.1419 132.472 87.7601C132.788 87.3727 133.178 87.0711 133.643 86.8553C134.113 86.6395 134.655 86.5316 135.27 86.5316C135.961 86.5316 136.551 86.6699 137.038 86.9466C137.525 87.2233 137.92 87.5941 138.225 88.0589C138.535 88.5237 138.761 89.0467 138.905 89.6277C139.049 90.2088 139.121 90.8065 139.121 91.4207V91.9769C139.121 92.6022 139.08 93.2386 138.997 93.886C138.919 94.528 138.767 95.1422 138.54 95.7288C138.319 96.3154 137.995 96.8411 137.569 97.306C137.143 97.7653 136.587 98.1305 135.9 98.4017C135.22 98.6673 134.379 98.8001 133.377 98.8001H133.219V97.4969ZM146.131 86.6312V98.7835H144.596V88.5486L141.499 89.6776V88.2913L145.891 86.6312H146.131ZM158.064 91.7776V93.6204C158.064 94.611 157.975 95.4466 157.798 96.1273C157.621 96.8079 157.367 97.3558 157.035 97.7708C156.702 98.1859 156.301 98.4874 155.831 98.6756C155.366 98.8582 154.84 98.9495 154.254 98.9495C153.789 98.9495 153.36 98.8914 152.967 98.7752C152.574 98.659 152.22 98.4736 151.905 98.2191C151.595 97.959 151.329 97.6214 151.108 97.2064C150.886 96.7913 150.718 96.2877 150.601 95.6956C150.485 95.1035 150.427 94.4118 150.427 93.6204V91.7776C150.427 90.7871 150.516 89.957 150.693 89.2874C150.875 88.6178 151.133 88.081 151.465 87.6771C151.797 87.2676 152.195 86.9743 152.66 86.7972C153.13 86.6201 153.656 86.5316 154.237 86.5316C154.708 86.5316 155.139 86.5897 155.532 86.7059C155.931 86.8165 156.285 86.9964 156.595 87.2454C156.904 87.4889 157.167 87.8154 157.383 88.2249C157.604 88.6289 157.773 89.1242 157.889 89.7108C158.006 90.2973 158.064 90.9863 158.064 91.7776ZM156.52 93.8694V91.5203C156.52 90.978 156.487 90.5021 156.42 90.0926C156.359 89.6776 156.268 89.3234 156.146 89.0301C156.025 88.7368 155.87 88.4988 155.681 88.3162C155.499 88.1336 155.286 88.0008 155.042 87.9178C154.804 87.8292 154.536 87.785 154.237 87.785C153.872 87.785 153.548 87.8541 153.266 87.9925C152.984 88.1253 152.746 88.3384 152.552 88.6317C152.364 88.9249 152.22 89.3095 152.12 89.7855C152.021 90.2614 151.971 90.8397 151.971 91.5203V93.8694C151.971 94.4118 152.001 94.8904 152.062 95.3055C152.129 95.7205 152.226 96.0802 152.353 96.3846C152.48 96.6834 152.635 96.9297 152.818 97.1234C153 97.317 153.211 97.4609 153.449 97.555C153.692 97.6435 153.96 97.6878 154.254 97.6878C154.63 97.6878 154.959 97.6159 155.242 97.472C155.524 97.3281 155.759 97.104 155.947 96.7996C156.141 96.4897 156.285 96.0941 156.379 95.6126C156.473 95.1256 156.52 94.5446 156.52 93.8694ZM164.916 86.6312V98.7835H163.381V88.5486L160.284 89.6776V88.2913L164.676 86.6312H164.916Z" fill="white"/>
<path d="M186.739 86.6312V98.7835H185.203V88.5486L182.107 89.6776V88.2913L186.498 86.6312H186.739ZM196.131 86.6312V98.7835H194.596V88.5486L191.499 89.6776V88.2913L195.891 86.6312H196.131ZM208.396 97.5218V98.7835H200.485V97.6795L204.445 93.2718C204.932 92.7295 205.308 92.2702 205.574 91.8939C205.845 91.512 206.033 91.1717 206.138 90.8729C206.249 90.5685 206.304 90.2586 206.304 89.9432C206.304 89.5447 206.221 89.185 206.055 88.8641C205.895 88.5376 205.657 88.2775 205.341 88.0838C205.026 87.8901 204.644 87.7933 204.196 87.7933C203.659 87.7933 203.211 87.8984 202.851 88.1087C202.497 88.3135 202.231 88.6012 202.054 88.972C201.877 89.3428 201.788 89.7689 201.788 90.2503H200.253C200.253 89.5696 200.402 88.9471 200.701 88.3826C201 87.8182 201.443 87.3699 202.029 87.0379C202.616 86.7003 203.338 86.5316 204.196 86.5316C204.959 86.5316 205.612 86.6671 206.155 86.9383C206.697 87.2039 207.112 87.5802 207.4 88.0672C207.693 88.5486 207.84 89.1131 207.84 89.7606C207.84 90.1147 207.779 90.4744 207.657 90.8397C207.541 91.1994 207.378 91.5591 207.167 91.9188C206.963 92.2785 206.722 92.6326 206.445 92.9813C206.174 93.3299 205.883 93.673 205.574 94.0106L202.336 97.5218H208.396ZM214.916 86.6312V98.7835H213.381V88.5486L210.284 89.6776V88.2913L214.676 86.6312H214.916Z" fill="white"/>
<defs>
<linearGradient id="paint0_linear_191_809" x1="5.21541e-06" y1="200" x2="330.353" y2="-28.4154" gradientUnits="userSpaceOnUse">
<stop stop-color="#0A353C"/>
<stop offset="0.492708" stop-color="#0A353C"/>
<stop offset="1" stop-color="#12252B"/>
</linearGradient>
<linearGradient id="paint1_linear_191_809" x1="5.21541e-06" y1="200" x2="330.353" y2="-28.4154" gradientUnits="userSpaceOnUse">
<stop stop-color="#280537"/>
<stop offset="0.185417" stop-color="#56034C"/>
<stop offset="0.419792" stop-color="#890058"/>
<stop offset="0.669792" stop-color="#BC005B"/>
<stop offset="1" stop-color="#EB1254"/>
</linearGradient>
<linearGradient id="paint2_linear_191_809" x1="5.21541e-06" y1="200" x2="330.353" y2="-28.4154" gradientUnits="userSpaceOnUse">
<stop stop-color="#FF5858"/>
<stop offset="0.492708" stop-color="#FF6B6B"/>
<stop offset="1" stop-color="#FF7D7D"/>
</linearGradient>
<linearGradient id="paint3_linear_191_809" x1="5.21541e-06" y1="200" x2="330.353" y2="-28.4154" gradientUnits="userSpaceOnUse">
<stop stop-color="#FF5858"/>
<stop offset="0.492708" stop-color="#FF6B6B"/>
<stop offset="1" stop-color="#FF7D7D"/>
</linearGradient>
</defs>
</svg>
