<svg width="293" height="104" viewBox="0 0 293 104" fill="none" xmlns="http://www.w3.org/2000/svg">
<path d="M32.4001 103.28C25.8294 103.28 20.1121 102.171 15.2481 99.952C10.3841 97.7333 6.62945 94.6187 3.98411 90.608C1.33878 86.5973 0.0161133 81.8613 0.0161133 76.4H19.2161C19.2161 79.5573 20.4108 82.0747 22.8001 83.952C25.2748 85.744 28.6028 86.64 32.7841 86.64C36.7948 86.64 39.9095 85.744 42.1281 83.952C44.4321 82.16 45.5841 79.6853 45.5841 76.528C45.5841 73.7973 44.7308 71.4507 43.0241 69.488C41.3174 67.5253 38.9281 66.2027 35.8561 65.52L26.3841 63.344C18.4481 61.4667 12.2614 58.0107 7.82411 52.976C3.47211 47.856 1.29611 41.6267 1.29611 34.288C1.29611 28.8267 2.53345 24.0907 5.00811 20.08C7.56811 15.984 11.1521 12.8267 15.7601 10.608C20.3681 8.38934 25.8294 7.28001 32.1441 7.28001C41.7015 7.28001 49.2535 9.66934 54.8001 14.448C60.4321 19.1413 63.2481 25.4987 63.2481 33.52H44.0481C44.0481 30.5333 42.9815 28.1867 40.8481 26.48C38.8001 24.7733 35.8134 23.92 31.8881 23.92C28.2188 23.92 25.4028 24.7733 23.4401 26.48C21.4774 28.1013 20.4961 30.448 20.4961 33.52C20.4961 36.2507 21.2641 38.5973 22.8001 40.56C24.4214 42.4373 26.6828 43.7173 29.5841 44.4L39.5681 46.704C47.8454 48.5813 54.1174 51.9947 58.3841 56.944C62.6508 61.808 64.7841 68.0373 64.7841 75.632C64.7841 81.0933 63.4188 85.9147 60.6881 90.096C58.0428 94.2773 54.2881 97.52 49.4241 99.824C44.6454 102.128 38.9708 103.28 32.4001 103.28Z" fill="#1BC47D"/>
<path d="M79.7101 102V84.592H104.03V48.88H82.9101V31.6H121.95V84.592H142.43V102H79.7101ZM111.71 20.464C108.211 20.464 105.395 19.568 103.262 17.776C101.214 15.984 100.19 13.552 100.19 10.48C100.19 7.408 101.214 4.976 103.262 3.18401C105.395 1.392 108.211 0.496002 111.71 0.496002C115.209 0.496002 117.982 1.392 120.03 3.18401C122.163 4.976 123.23 7.408 123.23 10.48C123.23 13.552 122.163 15.984 120.03 17.776C117.982 19.568 115.209 20.464 111.71 20.464Z" fill="#1BC47D"/>
<path d="M185.9 103.28C179.329 103.28 173.612 102.171 168.748 99.952C163.884 97.7333 160.129 94.6187 157.484 90.608C154.839 86.5973 153.516 81.8613 153.516 76.4H172.716C172.716 79.5573 173.911 82.0747 176.3 83.952C178.775 85.744 182.103 86.64 186.284 86.64C190.295 86.64 193.409 85.744 195.628 83.952C197.932 82.16 199.084 79.6853 199.084 76.528C199.084 73.7973 198.231 71.4507 196.524 69.488C194.817 67.5253 192.428 66.2027 189.356 65.52L179.884 63.344C171.948 61.4667 165.761 58.0107 161.324 52.976C156.972 47.856 154.796 41.6267 154.796 34.288C154.796 28.8267 156.033 24.0907 158.508 20.08C161.068 15.984 164.652 12.8267 169.26 10.608C173.868 8.38934 179.329 7.28001 185.644 7.28001C195.201 7.28001 202.753 9.66934 208.3 14.448C213.932 19.1413 216.748 25.4987 216.748 33.52H197.548C197.548 30.5333 196.481 28.1867 194.348 26.48C192.3 24.7733 189.313 23.92 185.388 23.92C181.719 23.92 178.903 24.7733 176.94 26.48C174.977 28.1013 173.996 30.448 173.996 33.52C173.996 36.2507 174.764 38.5973 176.3 40.56C177.921 42.4373 180.183 43.7173 183.084 44.4L193.068 46.704C201.345 48.5813 207.617 51.9947 211.884 56.944C216.151 61.808 218.284 68.0373 218.284 75.632C218.284 81.0933 216.919 85.9147 214.188 90.096C211.543 94.2773 207.788 97.52 202.924 99.824C198.145 102.128 192.471 103.28 185.9 103.28Z" fill="#1BC47D"/>
<path d="M262.65 103.28C253.178 103.28 245.754 100.72 240.378 95.6C235.087 90.48 232.442 83.4827 232.442 74.608V31.6H251.642V74.48C251.642 78.4053 252.581 81.4347 254.458 83.568C256.335 85.616 259.066 86.64 262.65 86.64C266.149 86.64 268.837 85.616 270.714 83.568C272.677 81.4347 273.658 78.4053 273.658 74.48V31.6H292.858V74.608C292.858 83.568 290.17 90.608 284.794 95.728C279.418 100.763 272.037 103.28 262.65 103.28Z" fill="#1BC47D"/>
</svg>
